<?xml version="1.0" encoding="UTF-8" standalone="no"?>
<svg
   xmlns:dc="http://purl.org/dc/elements/1.1/"
   xmlns:cc="http://creativecommons.org/ns#"
   xmlns:rdf="http://www.w3.org/1999/02/22-rdf-syntax-ns#"
   xmlns:svg="http://www.w3.org/2000/svg"
   xmlns="http://www.w3.org/2000/svg"
   xmlns:sodipodi="http://sodipodi.sourceforge.net/DTD/sodipodi-0.dtd"
   xmlns:inkscape="http://www.inkscape.org/namespaces/inkscape"
   width="55.200001mm"
   height="22.4mm"
   viewBox="0 0 55.200001 22.4"
   version="1.1"
   id="svg800"
   inkscape:version="1.0.2 (e86c870879, 2021-01-15)"
   sodipodi:docname="dsto.svg">
  <defs
     id="defs794">
    <clipPath
       clipPathUnits="userSpaceOnUse"
       id="clipPath142">
      <path
         d="M 0,696 H 320 V 0 H 0 Z"
         id="path140" />
    </clipPath>
    <clipPath
       clipPathUnits="userSpaceOnUse"
       id="clipPath162">
      <path
         d="M 0,696 H 320 V 0 H 0 Z"
         id="path160" />
    </clipPath>
    <clipPath
       clipPathUnits="userSpaceOnUse"
       id="clipPath178">
      <path
         d="M 0,696 H 320 V 0 H 0 Z"
         id="path176" />
    </clipPath>
  </defs>
  <sodipodi:namedview
     id="base"
     pagecolor="#ffffff"
     bordercolor="#666666"
     borderopacity="1.0"
     inkscape:pageopacity="0.0"
     inkscape:pageshadow="2"
     inkscape:zoom="2.4633589"
     inkscape:cx="126.61987"
     inkscape:cy="70.124782"
     inkscape:document-units="mm"
     inkscape:current-layer="layer1"
     inkscape:document-rotation="0"
     showgrid="false"
     inkscape:window-width="1366"
     inkscape:window-height="739"
     inkscape:window-x="0"
     inkscape:window-y="0"
     inkscape:window-maximized="1" />
  <metadata
     id="metadata797">
    <rdf:RDF>
      <cc:Work
         rdf:about="">
        <dc:format>image/svg+xml</dc:format>
        <dc:type
           rdf:resource="http://purl.org/dc/dcmitype/StillImage" />
        <dc:title></dc:title>
      </cc:Work>
    </rdf:RDF>
  </metadata>
  <g
     inkscape:label="Capa 1"
     inkscape:groupmode="layer"
     id="layer1">
    <g
       id="g749"
       transform="matrix(0.3511072,0,0,-0.3511072,-27.630632,190.67362)">
      <text
         transform="matrix(1,0,0,-1,78.5186,480.9268)"
         style="font-variant:normal;font-weight:bold;font-stretch:normal;font-size:78.5303px;font-family:Lato;-inkscape-font-specification:Lato-Bold;writing-mode:lr-tb;fill:#5d9740;fill-opacity:1;fill-rule:nonzero;stroke:none"
         id="text134"><tspan
           x="0 45.547573"
           y="0"
           sodipodi:role="line"
           id="tspan132">40</tspan></text>
      <g
         id="g136">
        <g
           id="g138"
           clip-path="url(#clipPath142)">
          <g
             id="g144"
             transform="translate(115.5063,537.7434)">
            <path
               d="m 0,0 h -9.188 l -26.896,-35.928 0.981,-4.908 c 0.131,-0.602 0.445,-1.106 0.942,-1.511 0.497,-0.407 1.073,-0.609 1.728,-0.609 H -8.481 V -56.817 H 0 v 13.861 h 5.144 c 0.654,0 1.151,0.19 1.492,0.569 0.34,0.379 0.51,0.831 0.51,1.355 v 5.615 H 0 Z m -8.481,-35.417 h -17.277 l 17.63,24.305 c -0.131,-1.047 -0.223,-2.055 -0.275,-3.023 -0.053,-0.969 -0.078,-1.872 -0.078,-2.71 z"
               style="fill:none;stroke:#5d9740;stroke-width:1;stroke-linecap:butt;stroke-linejoin:miter;stroke-miterlimit:10;stroke-dasharray:none;stroke-opacity:1"
               id="path146" />
          </g>
          <g
             id="g148"
             transform="translate(166.0591,522.2336)">
            <path
               d="m 0,0 c -1.06,3.638 -2.526,6.649 -4.398,9.031 -1.872,2.382 -4.083,4.155 -6.636,5.32 -2.552,1.165 -5.307,1.748 -8.265,1.748 -2.958,0 -5.7,-0.583 -8.226,-1.748 -2.526,-1.165 -4.719,-2.938 -6.577,-5.32 C -35.961,6.649 -37.414,3.638 -38.46,0 c -1.047,-3.639 -1.571,-7.945 -1.571,-12.918 0,-4.948 0.524,-9.247 1.571,-12.899 1.046,-3.651 2.499,-6.669 4.358,-9.05 1.858,-2.383 4.051,-4.156 6.577,-5.321 2.526,-1.164 5.268,-1.747 8.226,-1.747 2.958,0 5.713,0.583 8.265,1.747 2.553,1.165 4.764,2.938 6.636,5.321 1.872,2.381 3.338,5.399 4.398,9.05 1.06,3.652 1.59,7.951 1.59,12.899 C 1.59,-7.945 1.06,-3.639 0,0 Z m -9.326,-23.127 c -0.602,-2.697 -1.407,-4.843 -2.414,-6.44 -1.009,-1.597 -2.167,-2.716 -3.475,-3.357 -1.309,-0.641 -2.67,-0.962 -4.084,-0.962 -1.388,0 -2.729,0.321 -4.025,0.962 -1.295,0.641 -2.441,1.76 -3.435,3.357 -0.995,1.597 -1.787,3.743 -2.376,6.44 -0.589,2.696 -0.883,6.099 -0.883,10.209 0,4.109 0.294,7.512 0.883,10.209 0.589,2.696 1.381,4.842 2.376,6.439 0.994,1.597 2.14,2.716 3.435,3.357 1.296,0.642 2.637,0.962 4.025,0.962 1.414,0 2.775,-0.32 4.084,-0.962 1.308,-0.641 2.466,-1.76 3.475,-3.357 1.007,-1.597 1.812,-3.743 2.414,-6.439 0.602,-2.697 0.904,-6.1 0.904,-10.209 0,-4.11 -0.302,-7.513 -0.904,-10.209 z"
               style="fill:none;stroke:#5d9740;stroke-width:1;stroke-linecap:butt;stroke-linejoin:miter;stroke-miterlimit:10;stroke-dasharray:none;stroke-opacity:1"
               id="path150" />
          </g>
        </g>
      </g>
      <text
         transform="matrix(1,0,0,-1,173.8389,505.6736)"
         style="font-variant:normal;font-weight:bold;font-stretch:normal;font-size:44.2625px;font-family:Lato;-inkscape-font-specification:Lato-Bold;writing-mode:lr-tb;fill:#5d9740;fill-opacity:1;fill-rule:nonzero;stroke:none"
         id="text154"><tspan
           x="0"
           y="0"
           id="tspan152">$</tspan></text>
      <g
         id="g156">
        <g
           id="g158"
           clip-path="url(#clipPath162)">
          <g
             id="g164"
             transform="translate(183.6875,500.7383)">
            <path
               d="m 0,0 h 2.014 c 0.427,0 0.774,0.144 1.04,0.432 0.265,0.287 0.413,0.601 0.443,0.94 l 0.265,3.254 c 1.653,0.118 3.121,0.465 4.404,1.04 1.284,0.576 2.364,1.325 3.242,2.247 0.878,0.922 1.546,1.985 2.003,3.188 0.458,1.202 0.686,2.49 0.686,3.862 0,1.387 -0.258,2.541 -0.774,3.464 -0.517,0.922 -1.192,1.693 -2.025,2.313 -0.834,0.619 -1.771,1.125 -2.811,1.516 -1.04,0.391 -2.091,0.749 -3.154,1.074 l 0.775,9.167 c 0.576,-0.132 1.099,-0.302 1.571,-0.509 0.472,-0.207 0.904,-0.409 1.295,-0.608 0.391,-0.2 0.737,-0.369 1.04,-0.509 0.302,-0.141 0.565,-0.211 0.786,-0.211 0.295,0 0.546,0.074 0.752,0.222 0.207,0.147 0.413,0.368 0.62,0.664 L 13.5,33.56 c -0.841,0.796 -1.83,1.512 -2.966,2.146 -1.136,0.635 -2.486,1.077 -4.05,1.328 L 6.86,41.385 H 4.847 C 4.418,41.385 4.072,41.244 3.806,40.96 3.541,40.677 3.393,40.356 3.364,39.999 L 3.12,37.18 c -1.623,0 -3.061,-0.274 -4.315,-0.821 -1.255,-0.548 -2.309,-1.244 -3.165,-2.088 -0.856,-0.844 -1.509,-1.803 -1.959,-2.876 -0.45,-1.073 -0.675,-2.173 -0.675,-3.298 0,-1.51 0.251,-2.769 0.753,-3.775 0.501,-1.007 1.161,-1.84 1.981,-2.499 0.819,-0.659 1.74,-1.188 2.766,-1.588 1.025,-0.4 2.061,-0.748 3.109,-1.044 L 0.774,9.276 c -0.826,0.148 -1.542,0.377 -2.147,0.686 -0.605,0.31 -1.143,0.62 -1.615,0.93 -0.472,0.31 -0.893,0.579 -1.262,0.808 -0.368,0.228 -0.715,0.343 -1.04,0.343 -0.265,0 -0.52,-0.07 -0.763,-0.211 -0.243,-0.14 -0.439,-0.321 -0.587,-0.542 L -8.322,8.786 c 1.063,-1.048 2.35,-1.925 3.863,-2.634 1.512,-0.708 3.131,-1.18 4.857,-1.416 z M 7.712,10.789 C 6.908,9.94 5.724,9.413 4.161,9.207 l 0.752,8.985 C 5.488,18 6.02,17.786 6.506,17.55 6.993,17.314 7.417,17.033 7.779,16.709 8.14,16.384 8.421,16.012 8.62,15.591 8.819,15.171 8.918,14.68 8.918,14.12 c 0,-1.372 -0.401,-2.483 -1.206,-3.331 z m -9.295,19.195 c 0.17,0.435 0.439,0.83 0.808,1.184 0.369,0.354 0.841,0.654 1.417,0.897 0.575,0.244 1.268,0.417 2.08,0.521 L 2.036,24.392 c -0.561,0.207 -1.078,0.439 -1.549,0.698 -0.473,0.258 -0.882,0.553 -1.229,0.885 -0.346,0.332 -0.616,0.713 -0.807,1.141 -0.192,0.428 -0.288,0.923 -0.288,1.484 0,0.487 0.085,0.948 0.254,1.384 z"
               style="fill:none;stroke:#5d9740;stroke-width:1;stroke-linecap:butt;stroke-linejoin:miter;stroke-miterlimit:10;stroke-dasharray:none;stroke-opacity:1"
               id="path166" />
          </g>
        </g>
      </g>
      <text
         transform="matrix(1,0,0,-1,173.8389,479.9728)"
         style="font-variant:normal;font-weight:bold;font-stretch:normal;font-size:27.1286px;font-family:Lato;-inkscape-font-specification:Lato-Bold;writing-mode:lr-tb;fill:#5d9740;fill-opacity:1;fill-rule:nonzero;stroke:none"
         id="text170"><tspan
           x="0 19.207048 34.29055 55.274521"
           y="0"
           sodipodi:role="line"
           id="tspan168">DTO.</tspan></text>
      <g
         id="g172">
        <g
           id="g174"
           clip-path="url(#clipPath178)">
          <g
             id="g180"
             transform="translate(192.5171,493.7405)">
            <path
               d="m 0,0 c -0.479,1.203 -1.153,2.236 -2.021,3.099 -0.868,0.864 -1.913,1.538 -3.134,2.022 -1.22,0.483 -2.573,0.725 -4.055,0.725 h -7.488 v -19.614 h 7.488 c 1.482,0 2.835,0.24 4.055,0.719 1.221,0.479 2.266,1.153 3.134,2.021 0.868,0.868 1.542,1.904 2.021,3.106 0.479,1.203 0.719,2.523 0.719,3.961 C 0.719,-2.523 0.479,-1.203 0,0 Z m -3.445,-6.857 c -0.29,-0.854 -0.701,-1.578 -1.235,-2.17 -0.533,-0.592 -1.182,-1.047 -1.946,-1.363 -0.765,-0.317 -1.626,-0.475 -2.584,-0.475 h -3.812 V 2.943 h 3.812 c 0.958,0 1.819,-0.158 2.584,-0.474 0.764,-0.317 1.413,-0.771 1.946,-1.363 0.534,-0.593 0.945,-1.316 1.235,-2.171 0.289,-0.854 0.434,-1.82 0.434,-2.896 0,-1.076 -0.145,-2.041 -0.434,-2.896 z"
               style="fill:none;stroke:#5d9740;stroke-width:1;stroke-linecap:butt;stroke-linejoin:miter;stroke-miterlimit:10;stroke-dasharray:none;stroke-opacity:1"
               id="path182" />
          </g>
          <g
             id="g184"
             transform="translate(193.3857,499.5868)">
            <path
               d="m 0,0 v -2.998 h 5.927 v -16.616 h 3.649 v 16.616 h 5.901 V 0 Z"
               style="fill:none;stroke:#5d9740;stroke-width:1;stroke-linecap:butt;stroke-linejoin:miter;stroke-miterlimit:10;stroke-dasharray:none;stroke-opacity:1"
               id="path186" />
          </g>
          <g
             id="g188"
             transform="translate(228.2187,493.7745)">
            <path
               d="m 0,0 c -0.479,1.225 -1.153,2.283 -2.021,3.174 -0.868,0.891 -1.913,1.589 -3.133,2.096 -1.221,0.506 -2.573,0.759 -4.056,0.759 -1.483,0 -2.837,-0.251 -4.062,-0.753 -1.226,-0.501 -2.275,-1.2 -3.147,-2.095 -0.873,-0.895 -1.549,-1.956 -2.028,-3.181 -0.48,-1.225 -0.72,-2.557 -0.72,-3.995 0,-1.437 0.24,-2.769 0.72,-3.994 0.479,-1.226 1.155,-2.286 2.028,-3.181 0.872,-0.895 1.921,-1.594 3.147,-2.096 1.225,-0.502 2.579,-0.753 4.062,-0.753 1.483,0 2.835,0.251 4.056,0.753 1.22,0.502 2.265,1.201 3.133,2.096 0.868,0.895 1.542,1.955 2.021,3.181 0.479,1.225 0.719,2.557 0.719,3.994 0,1.438 -0.24,2.77 -0.719,3.995 z m -3.452,-6.891 c -0.285,-0.854 -0.694,-1.578 -1.228,-2.17 -0.533,-0.592 -1.182,-1.047 -1.946,-1.363 -0.765,-0.317 -1.626,-0.475 -2.584,-0.475 -0.959,0 -1.822,0.158 -2.591,0.475 -0.769,0.316 -1.422,0.771 -1.96,1.363 -0.538,0.592 -0.952,1.316 -1.241,2.17 -0.29,0.855 -0.434,1.82 -0.434,2.896 0,1.076 0.144,2.042 0.434,2.896 0.289,0.855 0.703,1.581 1.241,2.177 0.538,0.597 1.191,1.054 1.96,1.37 0.769,0.317 1.632,0.475 2.591,0.475 0.958,0 1.819,-0.158 2.584,-0.475 0.764,-0.316 1.413,-0.773 1.946,-1.37 0.534,-0.596 0.943,-1.322 1.228,-2.177 0.285,-0.854 0.427,-1.82 0.427,-2.896 0,-1.076 -0.142,-2.041 -0.427,-2.896 z"
               style="fill:none;stroke:#5d9740;stroke-width:1;stroke-linecap:butt;stroke-linejoin:miter;stroke-miterlimit:10;stroke-dasharray:none;stroke-opacity:1"
               id="path190" />
          </g>
          <g
             id="g192"
             transform="translate(230.2739,481.0104)">
            <path
               d="m 0,0 c 0.104,-0.249 0.249,-0.464 0.434,-0.644 0.186,-0.181 0.405,-0.324 0.658,-0.428 0.253,-0.103 0.525,-0.156 0.814,-0.156 0.28,0 0.547,0.053 0.8,0.156 0.253,0.104 0.47,0.247 0.651,0.428 C 3.538,-0.464 3.683,-0.249 3.792,0 3.9,0.249 3.954,0.518 3.954,0.807 3.954,1.087 3.9,1.354 3.792,1.607 3.683,1.86 3.538,2.077 3.357,2.258 3.176,2.439 2.959,2.584 2.706,2.693 2.453,2.801 2.186,2.855 1.906,2.855 1.617,2.855 1.345,2.801 1.092,2.693 0.839,2.584 0.62,2.439 0.434,2.258 0.249,2.077 0.104,1.86 0,1.607 -0.104,1.354 -0.156,1.087 -0.156,0.807 -0.156,0.518 -0.104,0.249 0,0 Z"
               style="fill:none;stroke:#5d9740;stroke-width:1;stroke-linecap:butt;stroke-linejoin:miter;stroke-miterlimit:10;stroke-dasharray:none;stroke-opacity:1"
               id="path194" />
          </g>
        </g>
      </g>
    </g>
  </g>
</svg>
