<?xml version="1.0" encoding="UTF-8" standalone="no"?>
<svg
   xmlns:dc="http://purl.org/dc/elements/1.1/"
   xmlns:cc="http://creativecommons.org/ns#"
   xmlns:rdf="http://www.w3.org/1999/02/22-rdf-syntax-ns#"
   xmlns:svg="http://www.w3.org/2000/svg"
   xmlns="http://www.w3.org/2000/svg"
   xmlns:sodipodi="http://sodipodi.sourceforge.net/DTD/sodipodi-0.dtd"
   xmlns:inkscape="http://www.inkscape.org/namespaces/inkscape"
   width="10.757mm"
   height="9.25mm"
   viewBox="0 0 10.757 9.25"
   version="1.1"
   id="svg937"
   inkscape:version="1.0.2 (e86c870879, 2021-01-15)"
   sodipodi:docname="icon1.svg">
  <defs
     id="defs931" />
  <sodipodi:namedview
     id="base"
     pagecolor="#ffffff"
     bordercolor="#666666"
     borderopacity="1.0"
     inkscape:pageopacity="0.0"
     inkscape:pageshadow="2"
     inkscape:zoom="5.1026026"
     inkscape:cx="42.028643"
     inkscape:cy="49.47946"
     inkscape:document-units="mm"
     inkscape:current-layer="layer1"
     inkscape:document-rotation="0"
     showgrid="false"
     inkscape:window-width="1366"
     inkscape:window-height="739"
     inkscape:window-x="0"
     inkscape:window-y="0"
     inkscape:window-maximized="1" />
  <metadata
     id="metadata934">
    <rdf:RDF>
      <cc:Work
         rdf:about="">
        <dc:format>image/svg+xml</dc:format>
        <dc:type
           rdf:resource="http://purl.org/dc/dcmitype/StillImage" />
        <dc:title></dc:title>
      </cc:Work>
    </rdf:RDF>
  </metadata>
  <g
     inkscape:label="Capa 1"
     inkscape:groupmode="layer"
     id="layer1">
    <g
       id="g444"
       transform="matrix(0.35277777,0,0,-0.35277777,7.2408998,4.1205042)"
       style="fill:#ffffff">
      <path
         d="m 0,0 v 2.161 c 0,0.436 -0.354,0.791 -0.79,0.791 -0.437,0 -0.791,-0.355 -0.791,-0.791 V 0 c 0,-0.437 0.354,-0.791 0.791,-0.791 C -0.354,-0.791 0,-0.437 0,0 m -9.54,2.952 c -0.437,0 -0.792,-0.355 -0.792,-0.791 V 0 c 0,-0.437 0.355,-0.791 0.792,-0.791 0.436,0 0.791,0.354 0.791,0.791 v 2.161 c 0,0.436 -0.355,0.791 -0.791,0.791 M 7.582,3.913 C 7.167,3.913 6.775,3.811 6.43,3.63 4.689,8.347 0.148,11.719 -5.165,11.719 c -5.314,0 -9.854,-3.372 -11.595,-8.089 -0.345,0.18 -0.736,0.283 -1.152,0.283 -1.379,0 -2.5,-1.121 -2.5,-2.501 v -4.487 c 0,-1.378 1.121,-2.499 2.5,-2.499 1.379,0 2.501,1.121 2.501,2.499 v 4.487 c 0,0.287 -0.049,0.563 -0.14,0.819 1.259,4.553 5.438,7.905 10.385,7.905 4.948,0 9.126,-3.352 10.384,-7.905 C 5.129,1.975 5.08,1.699 5.08,1.412 v -4.488 c 0,-0.217 0.028,-0.427 0.081,-0.63 -1.129,-3.794 -4.299,-6.719 -8.231,-7.497 -0.37,0.786 -1.169,1.331 -2.096,1.331 -1.279,0 -2.314,-1.036 -2.314,-2.315 0,-1.278 1.035,-2.314 2.314,-2.314 1.071,0 1.971,0.727 2.236,1.714 4.208,0.773 7.678,3.685 9.235,7.563 0.373,-0.222 0.81,-0.35 1.277,-0.35 1.377,0 2.499,1.121 2.499,2.499 v 4.487 c 0,1.379 -1.121,2.501 -2.499,2.501"
         style="fill:#ffffff;fill-opacity:1;fill-rule:nonzero;stroke:none"
         id="path446" />
    </g>
  </g>
</svg>
